<svg width="48" height="57" viewBox="0 0 48 57" fill="none" xmlns="http://www.w3.org/2000/svg">
<rect x="0.380371" y="0.380371" width="46.3957" height="55.5456" rx="2.6626" fill="#D2EFF5"/>
<rect x="0.380371" y="0.380371" width="46.3957" height="55.5456" rx="2.6626" stroke="#37804E" stroke-width="0.760742"/>
<path d="M11.5 14.7795C8.22675 14.7795 5.13059 15.4388 3.16008 15.9727C3.14676 15.9763 3.18006 15.9673 3.11381 15.9885C1.99302 16.3479 1.05697 17.5713 1.00318 18.7471C1 18.8166 1 18.8454 1 18.9031V51.744C1 51.9418 1 52.0407 1.0046 52.1242C1.08985 53.6733 2.32674 54.9102 3.87576 54.9954C3.9593 55 4.05819 55 4.25598 55H42.744C42.9418 55 43.0407 55 43.1242 54.9954C44.6733 54.9102 45.9102 53.6733 45.9954 52.1242C46 52.0407 46 51.9418 46 51.744V17.6556C46 16.999 45.7754 16.3623 45.3634 15.851C44.8174 15.1734 43.996 14.7795 43.1258 14.7795H35.5C30.5 14.7795 28 11 24.5 11C21 11 17 14.7795 11.5 14.7795Z" fill="#0ECFF7"/>
</svg>
