<svg width="47" height="58" viewBox="0 0 47 58" fill="none" xmlns="http://www.w3.org/2000/svg">
<rect x="0.380371" y="0.380371" width="46.2393" height="57.2393" rx="2.6626" fill="#D2EFF5"/>
<rect x="0.380371" y="0.380371" width="46.2393" height="57.2393" rx="2.6626" stroke="#EE1111" stroke-width="0.760742"/>
<path d="M11.5 46.859C8.65214 46.859 5.93833 46.9724 3.98329 47.0818L3.98329 47.0818C3.85603 47.0889 3.7924 47.0925 3.71219 47.1013C2.26009 47.26 1.08169 48.5062 1.00428 49.9649C1 50.0455 1 50.1217 1 50.2742V52.744C1 52.9418 1 53.0407 1.0046 53.1242C1.08985 54.6733 2.32674 55.9102 3.87576 55.9954C3.9593 56 4.05819 56 4.25598 56H42.744C42.9418 56 43.0407 56 43.1242 55.9954C44.6733 55.9102 45.9102 54.6733 45.9954 53.1242C46 53.0407 46 52.9418 46 52.744V48.5998C46 47.8204 45.4819 47.1359 44.7318 46.9243C44.578 46.881 44.4215 46.859 44.2617 46.859H35.5C30.5 46.859 28 46 24.5 46C21 46 17 46.859 11.5 46.859Z" fill="#0ECFF7"/>
</svg>
