<svg width="48" height="57" viewBox="0 0 48 57" fill="none" xmlns="http://www.w3.org/2000/svg">
<rect x="0.380371" y="0.686035" width="46.3957" height="55.5456" rx="2.6626" fill="#D2EFF5"/>
<rect x="0.380371" y="0.686035" width="46.3957" height="55.5456" rx="2.6626" stroke="#37804E" stroke-width="0.760742"/>
<path d="M11.5 29.491C8.41102 29.491 5.47976 29.878 3.50342 30.2173C3.47083 30.2229 3.45454 30.2257 3.38172 30.2419C2.11633 30.5237 1.06719 31.7683 1.00366 33.0631C1 33.1376 1 33.1822 1 33.2716V52.744C1 52.9418 1 53.0407 1.0046 53.1242C1.08985 54.6733 2.32674 55.9102 3.87576 55.9954C3.9593 56 4.05819 56 4.25598 56H42.744C42.9418 56 43.0407 56 43.1242 55.9954C44.6733 55.9102 45.9102 54.6733 45.9954 53.1242C46 53.0407 46 52.9418 46 52.744V31.8234C46 31.1237 45.6859 30.461 45.1443 30.018C44.7276 29.6772 44.2078 29.491 43.6695 29.491H35.5C30.5 29.491 28 27 24.5 27C21 27 17 29.491 11.5 29.491Z" fill="#0ECFF7"/>
</svg>
