<svg width="48" height="57" viewBox="0 0 48 57" fill="none" xmlns="http://www.w3.org/2000/svg">
<rect x="0.380371" y="0.380371" width="46.3957" height="55.5456" rx="2.6626" fill="#D2EFF5"/>
<rect x="0.380371" y="0.380371" width="46.3957" height="55.5456" rx="2.6626" stroke="#37804E" stroke-width="0.760742"/>
<path d="M5.5 3C0.860893 3 0.846205 6.50251 0.955267 7.59898L0.986091 7.90907C1.00416 8.09738 0.999332 8.00001 0.999988 8.18919L1.00001 8.25042V51.744C1.00001 51.9418 1.00001 52.0407 1.0046 52.1242C1.08985 53.6733 2.32675 54.9102 3.87576 54.9954C3.95931 55 4.0582 55 4.25598 55H42.744C42.9418 55 43.0407 55 43.1243 54.9954C44.6733 54.9102 45.9102 53.6733 45.9954 52.1242C46 52.0407 46 51.9418 46 51.744V7.92308V5.111C46 4.80967 46 4.659 45.9942 4.5655C45.8831 2.7622 44.366 1.50634 42.5737 1.73396C42.4807 1.74576 42.3132 1.77761 41.9782 1.8413C39.1017 2.38816 35.2655 3 32.5 3C27.5 3 23 1 19.5 1C16 1 11 3 5.5 3Z" fill="#0ECFF7"/>
</svg>
